<?xml version="1.0" ?><svg enable-background="new 0 0 512 512" id="Layer_1" version="1.1" viewBox="0 0 512 512" xml:space="preserve" xmlns="http://www.w3.org/2000/svg" xmlns:xlink="http://www.w3.org/1999/xlink"><g><g><linearGradient gradientUnits="userSpaceOnUse" id="SVGID_1_" x1="-0.0000027" x2="512" y1="256" y2="256"><stop offset="0" style="stop-color:#F67950"/><stop offset="1" style="stop-color:#F15A29"/></linearGradient><circle cx="256" cy="256" fill="url(#SVGID_1_)" r="256"/><linearGradient gradientUnits="userSpaceOnUse" id="SVGID_2_" x1="42.6666641" x2="469.3333435" y1="256.0005188" y2="256.0005188"><stop offset="0" style="stop-color:#F15A29"/><stop offset="1" style="stop-color:#F67950"/></linearGradient><path d="M256,469.3338623c-117.6309967,0-213.3333435-95.7018738-213.3333435-213.3333435    c0-117.6309204,95.7023392-213.333313,213.3333435-213.333313c117.6362,0,213.3333435,95.7024002,213.3333435,213.333313    C469.3333435,373.6319885,373.6362,469.3338623,256,469.3338623z" fill="url(#SVGID_2_)"/></g><g><path d="M280.3364868,238.7967987c-7.8853455-7.8853302-18.3690796-12.2288055-29.5216217-12.2288055    c-11.1525269,0-21.6308594,4.3434753-29.5162659,12.2288055c-7.8858643,7.8863983-12.226593,18.3690643-12.226593,29.519455    c0,11.1498718,4.3407288,21.6330872,12.226593,29.5189514c7.8854065,7.8858643,18.363739,12.2287903,29.5162659,12.2287903    c11.1525421,0,21.6362762-4.342926,29.5216217-12.2287903c7.8858643-7.8858643,12.2266541-18.3690796,12.2266541-29.5189514    C292.5631409,257.165863,288.2223511,246.683197,280.3364868,238.7967987z" opacity="0.3"/><path d="M259.835144,182.7498627l-30.8352051-30H144V299v76.2501221h120h120V299V182.7498627H259.835144z     M321.9482117,346.5189209l-38.2485352-38.2501221c-9.2431946,7.6357422-20.7424011,11.7951965-32.8848114,11.7951965    c-13.8228607,0-26.8165283-5.3829346-36.5866547-15.1583862c-9.7754669-9.7727966-15.1562042-22.7658691-15.1562042-36.5893555    c0-13.8234558,5.3807373-26.8165131,15.1562042-36.589325c9.7701263-9.7754669,22.7637939-15.1589355,36.5866547-15.1589355    c13.8234711,0,26.8165436,5.3834686,36.5919952,15.1589355c9.7749329,9.7728119,15.1562805,22.7658691,15.1562805,36.589325    c0,12.1429443-4.1578064,23.6405334-11.7930603,32.8826904l38.2479858,38.2501221L321.9482117,346.5189209z" opacity="0.3"/></g><g><path d="M272.3364868,230.7967987c-7.8853455-7.8853302-18.3690796-12.2288055-29.5216217-12.2288055    c-11.1525269,0-21.6308594,4.3434753-29.5162659,12.2288055c-7.8858643,7.8863983-12.226593,18.3690643-12.226593,29.519455    c0,11.1498718,4.3407288,21.6330872,12.226593,29.5189514c7.8854065,7.8858643,18.363739,12.2287903,29.5162659,12.2287903    c11.1525421,0,21.6362762-4.342926,29.5216217-12.2287903c7.8858643-7.8858643,12.2266541-18.3690796,12.2266541-29.5189514    C284.5631409,249.165863,280.2223511,238.683197,272.3364868,230.7967987z" fill="#FFFFFF"/><path d="M251.835144,174.7498627l-30.8352051-30H136V291v76.2501221h120h120V291V174.7498627H251.835144z     M313.9482117,338.5189209l-38.2485352-38.2501221c-9.2431946,7.6357422-20.7424011,11.7951965-32.8848114,11.7951965    c-13.8228607,0-26.8165283-5.3829346-36.5866547-15.1583862c-9.7754669-9.7727966-15.1562042-22.7658691-15.1562042-36.5893555    c0-13.8234558,5.3807373-26.8165131,15.1562042-36.589325c9.7701263-9.7754669,22.7637939-15.1589355,36.5866547-15.1589355    c13.8234711,0,26.8165436,5.3834686,36.5919952,15.1589355c9.7749329,9.7728119,15.1562805,22.7658691,15.1562805,36.589325    c0,12.1429443-4.1578064,23.6405334-11.7930603,32.8826904l38.2479858,38.2501221L313.9482117,338.5189209z" fill="#FFFFFF"/></g></g></svg>